<svg viewBox="0 0 800 600" xmlns="http://www.w3.org/2000/svg">
    <!-- Main Window -->
    <rect x="10" y="10" width="780" height="580" fill="#f0f0f0" stroke="#333" stroke-width="2"/>
    
    <!-- Title Bar -->
    <rect x="10" y="10" width="780" height="40" fill="#e0e0e0" stroke="#333" stroke-width="2"/>
    <text x="30" y="35" font-family="Arial" font-size="16" fill="#333">Duplicate File Detector</text>
    
    <!-- Left Panel - Settings -->
    <rect x="20" y="60" width="250" height="520" fill="white" stroke="#ccc"/>
    <text x="30" y="85" font-family="Arial" font-size="14" font-weight="bold">Settings</text>
    
    <!-- Path Selection -->
    <rect x="30" y="100" width="230" height="30" fill="#fff" stroke="#999"/>
    <text x="35" y="120" font-family="Arial" font-size="12">Path: /home/user/documents</text>
    <rect x="180" y="105" width="70" height="20" fill="#f0f0f0" stroke="#999"/>
    <text x="195" y="119" font-family="Arial" font-size="12">Browse</text>
    
    <!-- File Extensions -->
    <text x="30" y="160" font-family="Arial" font-size="12">File Extensions:</text>
    <rect x="30" y="170" width="230" height="100" fill="#fff" stroke="#999"/>
    <circle cx="45" cy="190" r="6" fill="#fff" stroke="#333"/>
    <text x="60" y="195" font-family="Arial" font-size="12">Images (*.jpg, *.png)</text>
    <circle cx="45" cy="215" r="6" fill="#fff" stroke="#333"/>
    <text x="60" y="220" font-family="Arial" font-size="12">Documents (*.pdf, *.doc)</text>
    <circle cx="45" cy="240" r="6" fill="#fff" stroke="#333"/>
    <text x="60" y="245" font-family="Arial" font-size="12">Custom...</text>
    
    <!-- Scan Button -->
    <rect x="30" y="290" width="230" height="40" fill="#4CAF50" stroke="#45a049"/>
    <text x="120" y="315" font-family="Arial" font-size="14" fill="white">Start Scan</text>
    
    <!-- Right Panel - Results -->
    <rect x="280" y="60" width="500" height="520" fill="white" stroke="#ccc"/>
    <text x="290" y="85" font-family="Arial" font-size="14" font-weight="bold">Results</text>
    
    <!-- Results List -->
    <rect x="290" y="100" width="480" height="470" fill="#fff" stroke="#999"/>
    
    <!-- Sample Result Item -->
    <rect x="300" y="110" width="460" height="100" fill="#f9f9f9" stroke="#eee"/>
    <text x="310" y="130" font-family="Arial" font-size="12" fill="#666">Group 1 - 2 duplicates (1.2 MB each)</text>
    <rect x="310" y="140" width="80" height="60" fill="#eee" stroke="#ddd"/>
    <text x="330" y="175" font-family="Arial" font-size="10">Preview</text>
    <text x="400" y="155" font-family="Arial" font-size="12">/path/to/file1.jpg</text>
    <text x="400" y="175" font-family="Arial" font-size="12">/path/to/file2.jpg</text>
    <rect x="680" y="150" width="70" height="20" fill="#f0f0f0" stroke="#999"/>
    <text x="695" y="164" font-family="Arial" font-size="12">Delete</text>
</svg>
